<?xml version="1.0" encoding="UTF-8" standalone="no"?>
<!DOCTYPE svg PUBLIC "-//W3C//DTD SVG 1.1//EN"
 "http://www.w3.org/Graphics/SVG/1.1/DTD/svg11.dtd">
<!-- Generated by graphviz version 2.47.0 (20210316.0004)
 -->
<!-- Title: dependencies Pages: 1 -->
<svg width="504pt" height="211pt"
 viewBox="0.00 0.00 504.00 211.00" xmlns="http://www.w3.org/2000/svg" xmlns:xlink="http://www.w3.org/1999/xlink">
<g id="graph0" class="graph" transform="scale(1 1) rotate(0) translate(4 207)">
<title>dependencies</title>
<polygon fill="white" stroke="transparent" points="-4,4 -4,-207 500,-207 500,4 -4,4"/>
<text text-anchor="start" x="227.01" y="-42.4" font-family="Times-12" font-weight="bold" font-size="14.00">Legend</text>
<polygon fill="#ffffb3" stroke="transparent" points="14,-10 14,-30 34,-30 34,-10 14,-10"/>
<text text-anchor="start" x="37.63" y="-15.4" font-family="Times-12" font-size="14.00"> &#160;Declarations</text>
<polygon fill="#8dd3c7" stroke="transparent" points="127,-10 127,-30 147,-30 147,-10 127,-10"/>
<text text-anchor="start" x="150.73" y="-15.4" font-family="Times-12" font-size="14.00"> &#160;Module</text>
<polygon fill="#80b1d3" stroke="transparent" points="213,-10 213,-30 233,-30 233,-10 213,-10"/>
<text text-anchor="start" x="236.78" y="-15.4" font-family="Times-12" font-size="14.00"> &#160;Bootstrap</text>
<polygon fill="#fdb462" stroke="transparent" points="310,-10 310,-30 330,-30 330,-10 310,-10"/>
<text text-anchor="start" x="333.67" y="-15.4" font-family="Times-12" font-size="14.00"> &#160;Providers</text>
<polygon fill="#fb8072" stroke="transparent" points="406,-10 406,-30 426,-30 426,-10 406,-10"/>
<text text-anchor="start" x="429.73" y="-15.4" font-family="Times-12" font-size="14.00"> &#160;Exports</text>
<g id="clust1" class="cluster">
<title>cluster_CoreModule</title>
<polygon fill="none" stroke="black" stroke-dasharray="1,5" points="77,-70 77,-195 419,-195 419,-70 77,-70"/>
</g>
<g id="clust6" class="cluster">
<title>cluster_CoreModule_providers</title>
<polygon fill="none" stroke="black" points="85,-78 85,-130 411,-130 411,-78 85,-78"/>
</g>
<!-- PresenterService -->
<g id="node1" class="node">
<title>PresenterService</title>
<ellipse fill="#fdb462" stroke="black" cx="327" cy="-104" rx="75.84" ry="18"/>
<text text-anchor="middle" x="327" y="-99.8" font-family="Times,serif" font-size="14.00">PresenterService</text>
</g>
<!-- CoreModule -->
<g id="node3" class="node">
<title>CoreModule</title>
<polygon fill="#8dd3c7" stroke="black" points="288.26,-187 285.26,-191 264.26,-191 261.26,-187 201.74,-187 201.74,-151 288.26,-151 288.26,-187"/>
<text text-anchor="middle" x="245" y="-164.8" font-family="Times,serif" font-size="14.00">CoreModule</text>
</g>
<!-- PresenterService&#45;&gt;CoreModule -->
<g id="edge1" class="edge">
<title>PresenterService&#45;&gt;CoreModule</title>
<path fill="none" stroke="black" d="M269.73,-115.92C269.73,-115.92 269.73,-140.77 269.73,-140.77"/>
<polygon fill="black" stroke="black" points="266.23,-140.77 269.73,-150.77 273.23,-140.77 266.23,-140.77"/>
</g>
<!-- ProductService -->
<g id="node2" class="node">
<title>ProductService</title>
<ellipse fill="#fdb462" stroke="black" cx="163" cy="-104" rx="70.06" ry="18"/>
<text text-anchor="middle" x="163" y="-99.8" font-family="Times,serif" font-size="14.00">ProductService</text>
</g>
<!-- ProductService&#45;&gt;CoreModule -->
<g id="edge2" class="edge">
<title>ProductService&#45;&gt;CoreModule</title>
<path fill="none" stroke="black" d="M217.32,-115.62C217.32,-115.62 217.32,-140.85 217.32,-140.85"/>
<polygon fill="black" stroke="black" points="213.83,-140.85 217.32,-150.85 220.83,-140.85 213.83,-140.85"/>
</g>
</g>
</svg>
