<?xml version="1.0" encoding="UTF-8" standalone="no"?>
<!DOCTYPE svg PUBLIC "-//W3C//DTD SVG 1.1//EN"
 "http://www.w3.org/Graphics/SVG/1.1/DTD/svg11.dtd">
<!-- Generated by graphviz version 2.47.0 (20210316.0004)
 -->
<!-- Title: dependencies Pages: 1 -->
<svg width="504pt" height="284pt"
 viewBox="0.00 0.00 504.00 284.00" xmlns="http://www.w3.org/2000/svg" xmlns:xlink="http://www.w3.org/1999/xlink">
<g id="graph0" class="graph" transform="scale(1 1) rotate(0) translate(4 280)">
<title>dependencies</title>
<polygon fill="white" stroke="transparent" points="-4,4 -4,-280 500,-280 500,4 -4,4"/>
<text text-anchor="start" x="227.01" y="-42.4" font-family="Times-12" font-weight="bold" font-size="14.00">Legend</text>
<polygon fill="#ffffb3" stroke="transparent" points="14,-10 14,-30 34,-30 34,-10 14,-10"/>
<text text-anchor="start" x="37.63" y="-15.4" font-family="Times-12" font-size="14.00"> &#160;Declarations</text>
<polygon fill="#8dd3c7" stroke="transparent" points="127,-10 127,-30 147,-30 147,-10 127,-10"/>
<text text-anchor="start" x="150.73" y="-15.4" font-family="Times-12" font-size="14.00"> &#160;Module</text>
<polygon fill="#80b1d3" stroke="transparent" points="213,-10 213,-30 233,-30 233,-10 213,-10"/>
<text text-anchor="start" x="236.78" y="-15.4" font-family="Times-12" font-size="14.00"> &#160;Bootstrap</text>
<polygon fill="#fdb462" stroke="transparent" points="310,-10 310,-30 330,-30 330,-10 310,-10"/>
<text text-anchor="start" x="333.67" y="-15.4" font-family="Times-12" font-size="14.00"> &#160;Providers</text>
<polygon fill="#fb8072" stroke="transparent" points="406,-10 406,-30 426,-30 426,-10 406,-10"/>
<text text-anchor="start" x="429.73" y="-15.4" font-family="Times-12" font-size="14.00"> &#160;Exports</text>
<g id="clust1" class="cluster">
<title>cluster_UiModule</title>
<polygon fill="none" stroke="black" stroke-dasharray="1,5" points="90,-70 90,-268 406,-268 406,-70 90,-70"/>
</g>
<g id="clust6" class="cluster">
<title>cluster_UiModule_exports</title>
<polygon fill="none" stroke="black" points="98,-208 98,-260 398,-260 398,-208 98,-208"/>
</g>
<g id="clust2" class="cluster">
<title>cluster_UiModule_declarations</title>
<polygon fill="none" stroke="black" points="102,-78 102,-130 395,-130 395,-78 102,-78"/>
</g>
<!-- UiCardComponent -->
<g id="node1" class="node">
<title>UiCardComponent</title>
<polygon fill="#ffffb3" stroke="black" points="387.04,-122 264.96,-122 264.96,-86 387.04,-86 387.04,-122"/>
<text text-anchor="middle" x="326" y="-99.8" font-family="Times,serif" font-size="14.00">UiCardComponent</text>
</g>
<!-- UiModule -->
<g id="node3" class="node">
<title>UiModule</title>
<polygon fill="#8dd3c7" stroke="black" points="215.55,-187 212.55,-191 191.55,-191 188.55,-187 142.45,-187 142.45,-151 215.55,-151 215.55,-187"/>
<text text-anchor="middle" x="179" y="-164.8" font-family="Times,serif" font-size="14.00">UiModule</text>
</g>
<!-- UiCardComponent&#45;&gt;UiModule -->
<g id="edge1" class="edge">
<title>UiCardComponent&#45;&gt;UiModule</title>
<path fill="none" stroke="black" d="M346.42,-122.02C346.42,-139.37 346.42,-163 346.42,-163 346.42,-163 225.74,-163 225.74,-163"/>
<polygon fill="black" stroke="black" points="225.74,-159.5 215.74,-163 225.74,-166.5 225.74,-159.5"/>
</g>
<!-- UiNavbarComponent -->
<g id="node2" class="node">
<title>UiNavbarComponent</title>
<polygon fill="#ffffb3" stroke="black" points="246.03,-122 109.97,-122 109.97,-86 246.03,-86 246.03,-122"/>
<text text-anchor="middle" x="178" y="-99.8" font-family="Times,serif" font-size="14.00">UiNavbarComponent</text>
</g>
<!-- UiNavbarComponent&#45;&gt;UiModule -->
<g id="edge2" class="edge">
<title>UiNavbarComponent&#45;&gt;UiModule</title>
<path fill="none" stroke="black" d="M179,-122.11C179,-122.11 179,-140.99 179,-140.99"/>
<polygon fill="black" stroke="black" points="175.5,-140.99 179,-150.99 182.5,-140.99 175.5,-140.99"/>
</g>
<!-- UiCardComponent  -->
<g id="node4" class="node">
<title>UiCardComponent </title>
<polygon fill="#fb8072" stroke="black" points="390.04,-252 263.96,-252 263.96,-216 390.04,-216 390.04,-252"/>
<text text-anchor="middle" x="327" y="-229.8" font-family="Times,serif" font-size="14.00">UiCardComponent </text>
</g>
<!-- UiModule&#45;&gt;UiCardComponent  -->
<g id="edge3" class="edge">
<title>UiModule&#45;&gt;UiCardComponent </title>
<path fill="none" stroke="black" stroke-dasharray="5,2" d="M215.61,-175C252.99,-175 305.58,-175 305.58,-175 305.58,-175 305.58,-205.98 305.58,-205.98"/>
<polygon fill="black" stroke="black" points="302.08,-205.98 305.58,-215.98 309.08,-205.98 302.08,-205.98"/>
</g>
<!-- UiNavbarComponent  -->
<g id="node5" class="node">
<title>UiNavbarComponent </title>
<polygon fill="#fb8072" stroke="black" points="246.03,-252 105.97,-252 105.97,-216 246.03,-216 246.03,-252"/>
<text text-anchor="middle" x="176" y="-229.8" font-family="Times,serif" font-size="14.00">UiNavbarComponent </text>
</g>
<!-- UiModule&#45;&gt;UiNavbarComponent  -->
<g id="edge4" class="edge">
<title>UiModule&#45;&gt;UiNavbarComponent </title>
<path fill="none" stroke="black" stroke-dasharray="5,2" d="M179,-187.11C179,-187.11 179,-205.99 179,-205.99"/>
<polygon fill="black" stroke="black" points="175.5,-205.99 179,-215.99 182.5,-205.99 175.5,-205.99"/>
</g>
</g>
</svg>
