<?xml version="1.0" encoding="UTF-8" standalone="no"?>
<!DOCTYPE svg PUBLIC "-//W3C//DTD SVG 1.1//EN"
 "http://www.w3.org/Graphics/SVG/1.1/DTD/svg11.dtd">
<!-- Generated by graphviz version 2.47.0 (20210316.0004)
 -->
<!-- Title: dependencies Pages: 1 -->
<svg width="504pt" height="211pt"
 viewBox="0.00 0.00 504.00 211.00" xmlns="http://www.w3.org/2000/svg" xmlns:xlink="http://www.w3.org/1999/xlink">
<g id="graph0" class="graph" transform="scale(1 1) rotate(0) translate(4 207)">
<title>dependencies</title>
<polygon fill="white" stroke="transparent" points="-4,4 -4,-207 500,-207 500,4 -4,4"/>
<text text-anchor="start" x="227.01" y="-42.4" font-family="Times-12" font-weight="bold" font-size="14.00">Legend</text>
<polygon fill="#ffffb3" stroke="transparent" points="14,-10 14,-30 34,-30 34,-10 14,-10"/>
<text text-anchor="start" x="37.63" y="-15.4" font-family="Times-12" font-size="14.00"> &#160;Declarations</text>
<polygon fill="#8dd3c7" stroke="transparent" points="127,-10 127,-30 147,-30 147,-10 127,-10"/>
<text text-anchor="start" x="150.73" y="-15.4" font-family="Times-12" font-size="14.00"> &#160;Module</text>
<polygon fill="#80b1d3" stroke="transparent" points="213,-10 213,-30 233,-30 233,-10 213,-10"/>
<text text-anchor="start" x="236.78" y="-15.4" font-family="Times-12" font-size="14.00"> &#160;Bootstrap</text>
<polygon fill="#fdb462" stroke="transparent" points="310,-10 310,-30 330,-30 330,-10 310,-10"/>
<text text-anchor="start" x="333.67" y="-15.4" font-family="Times-12" font-size="14.00"> &#160;Providers</text>
<polygon fill="#fb8072" stroke="transparent" points="406,-10 406,-30 426,-30 426,-10 406,-10"/>
<text text-anchor="start" x="429.73" y="-15.4" font-family="Times-12" font-size="14.00"> &#160;Exports</text>
<g id="clust1" class="cluster">
<title>cluster_ViewHomeModule</title>
<polygon fill="none" stroke="black" stroke-dasharray="1,5" points="16.5,-70 16.5,-195 479.5,-195 479.5,-70 16.5,-70"/>
</g>
<g id="clust4" class="cluster">
<title>cluster_ViewHomeModule_imports</title>
<polygon fill="none" stroke="black" points="194.5,-78 194.5,-130 471.5,-130 471.5,-78 194.5,-78"/>
</g>
<g id="clust2" class="cluster">
<title>cluster_ViewHomeModule_declarations</title>
<polygon fill="none" stroke="black" points="24.5,-78 24.5,-130 186.5,-130 186.5,-78 24.5,-78"/>
</g>
<!-- ViewHomeComponent -->
<g id="node1" class="node">
<title>ViewHomeComponent</title>
<polygon fill="#ffffb3" stroke="black" points="178.36,-122 32.64,-122 32.64,-86 178.36,-86 178.36,-122"/>
<text text-anchor="middle" x="105.5" y="-99.8" font-family="Times,serif" font-size="14.00">ViewHomeComponent</text>
</g>
<!-- ViewHomeModule -->
<g id="node2" class="node">
<title>ViewHomeModule</title>
<polygon fill="#8dd3c7" stroke="black" points="349.58,-187 346.58,-191 325.58,-191 322.58,-187 225.42,-187 225.42,-151 349.58,-151 349.58,-187"/>
<text text-anchor="middle" x="287.5" y="-164.8" font-family="Times,serif" font-size="14.00">ViewHomeModule</text>
</g>
<!-- ViewHomeComponent&#45;&gt;ViewHomeModule -->
<g id="edge1" class="edge">
<title>ViewHomeComponent&#45;&gt;ViewHomeModule</title>
<path fill="none" stroke="black" d="M105.5,-122.11C105.5,-141.34 105.5,-169 105.5,-169 105.5,-169 215.37,-169 215.37,-169"/>
<polygon fill="black" stroke="black" points="215.37,-172.5 225.37,-169 215.37,-165.5 215.37,-172.5"/>
</g>
<!-- UiModule -->
<g id="node3" class="node">
<title>UiModule</title>
<polygon fill="#8dd3c7" stroke="black" points="463.05,-122 460.05,-126 439.05,-126 436.05,-122 389.95,-122 389.95,-86 463.05,-86 463.05,-122"/>
<text text-anchor="middle" x="426.5" y="-99.8" font-family="Times,serif" font-size="14.00">UiModule</text>
</g>
<!-- UiModule&#45;&gt;ViewHomeModule -->
<g id="edge2" class="edge">
<title>UiModule&#45;&gt;ViewHomeModule</title>
<path fill="none" stroke="black" d="M426.5,-122.11C426.5,-141.34 426.5,-169 426.5,-169 426.5,-169 359.68,-169 359.68,-169"/>
<polygon fill="black" stroke="black" points="359.68,-165.5 349.68,-169 359.68,-172.5 359.68,-165.5"/>
</g>
<!-- ViewHomeRoutingModule -->
<g id="node4" class="node">
<title>ViewHomeRoutingModule</title>
<polygon fill="#8dd3c7" stroke="black" points="372.2,-122 369.2,-126 348.2,-126 345.2,-122 202.8,-122 202.8,-86 372.2,-86 372.2,-122"/>
<text text-anchor="middle" x="287.5" y="-99.8" font-family="Times,serif" font-size="14.00">ViewHomeRoutingModule</text>
</g>
<!-- ViewHomeRoutingModule&#45;&gt;ViewHomeModule -->
<g id="edge3" class="edge">
<title>ViewHomeRoutingModule&#45;&gt;ViewHomeModule</title>
<path fill="none" stroke="black" d="M287.5,-122.11C287.5,-122.11 287.5,-140.99 287.5,-140.99"/>
<polygon fill="black" stroke="black" points="284,-140.99 287.5,-150.99 291,-140.99 284,-140.99"/>
</g>
</g>
</svg>
