<?xml version="1.0" encoding="UTF-8" standalone="no"?>
<!DOCTYPE svg PUBLIC "-//W3C//DTD SVG 1.1//EN"
 "http://www.w3.org/Graphics/SVG/1.1/DTD/svg11.dtd">
<!-- Generated by graphviz version 2.47.0 (20210316.0004)
 -->
<!-- Title: dependencies Pages: 1 -->
<svg width="561pt" height="284pt"
 viewBox="0.00 0.00 561.00 284.00" xmlns="http://www.w3.org/2000/svg" xmlns:xlink="http://www.w3.org/1999/xlink">
<g id="graph0" class="graph" transform="scale(1 1) rotate(0) translate(4 280)">
<title>dependencies</title>
<polygon fill="white" stroke="transparent" points="-4,4 -4,-280 557,-280 557,4 -4,4"/>
<text text-anchor="start" x="255.51" y="-42.4" font-family="Times-12" font-weight="bold" font-size="14.00">Legend</text>
<polygon fill="#ffffb3" stroke="transparent" points="42.5,-10 42.5,-30 62.5,-30 62.5,-10 42.5,-10"/>
<text text-anchor="start" x="66.13" y="-15.4" font-family="Times-12" font-size="14.00"> &#160;Declarations</text>
<polygon fill="#8dd3c7" stroke="transparent" points="155.5,-10 155.5,-30 175.5,-30 175.5,-10 155.5,-10"/>
<text text-anchor="start" x="179.23" y="-15.4" font-family="Times-12" font-size="14.00"> &#160;Module</text>
<polygon fill="#80b1d3" stroke="transparent" points="241.5,-10 241.5,-30 261.5,-30 261.5,-10 241.5,-10"/>
<text text-anchor="start" x="265.28" y="-15.4" font-family="Times-12" font-size="14.00"> &#160;Bootstrap</text>
<polygon fill="#fdb462" stroke="transparent" points="338.5,-10 338.5,-30 358.5,-30 358.5,-10 338.5,-10"/>
<text text-anchor="start" x="362.17" y="-15.4" font-family="Times-12" font-size="14.00"> &#160;Providers</text>
<polygon fill="#fb8072" stroke="transparent" points="434.5,-10 434.5,-30 454.5,-30 454.5,-10 434.5,-10"/>
<text text-anchor="start" x="458.23" y="-15.4" font-family="Times-12" font-size="14.00"> &#160;Exports</text>
<g id="clust1" class="cluster">
<title>cluster_AppModule</title>
<polygon fill="none" stroke="black" stroke-dasharray="1,5" points="8,-70 8,-268 545,-268 545,-70 8,-70"/>
</g>
<g id="clust2" class="cluster">
<title>cluster_AppModule_declarations</title>
<polygon fill="none" stroke="black" points="415,-78 415,-130 537,-130 537,-78 415,-78"/>
</g>
<g id="clust4" class="cluster">
<title>cluster_AppModule_imports</title>
<polygon fill="none" stroke="black" points="16,-78 16,-130 407,-130 407,-78 16,-78"/>
</g>
<g id="clust6" class="cluster">
<title>cluster_AppModule_bootstrap</title>
<polygon fill="none" stroke="black" points="210,-208 210,-260 334,-260 334,-208 210,-208"/>
</g>
<!-- AppComponent -->
<g id="node1" class="node">
<title>AppComponent</title>
<polygon fill="#ffffb3" stroke="black" points="528.94,-122 423.06,-122 423.06,-86 528.94,-86 528.94,-122"/>
<text text-anchor="middle" x="476" y="-99.8" font-family="Times,serif" font-size="14.00">AppComponent</text>
</g>
<!-- AppModule -->
<g id="node2" class="node">
<title>AppModule</title>
<polygon fill="#8dd3c7" stroke="black" points="313.66,-187 310.66,-191 289.66,-191 286.66,-187 230.34,-187 230.34,-151 313.66,-151 313.66,-187"/>
<text text-anchor="middle" x="272" y="-164.8" font-family="Times,serif" font-size="14.00">AppModule</text>
</g>
<!-- AppComponent&#45;&gt;AppModule -->
<g id="edge1" class="edge">
<title>AppComponent&#45;&gt;AppModule</title>
<path fill="none" stroke="black" d="M476,-122.11C476,-141.34 476,-169 476,-169 476,-169 323.77,-169 323.77,-169"/>
<polygon fill="black" stroke="black" points="323.77,-165.5 313.77,-169 323.77,-172.5 323.77,-165.5"/>
</g>
<!-- AppComponent  -->
<g id="node6" class="node">
<title>AppComponent </title>
<polygon fill="#80b1d3" stroke="black" points="326.44,-252 217.56,-252 217.56,-216 326.44,-216 326.44,-252"/>
<text text-anchor="middle" x="272" y="-229.8" font-family="Times,serif" font-size="14.00">AppComponent </text>
</g>
<!-- AppModule&#45;&gt;AppComponent  -->
<g id="edge5" class="edge">
<title>AppModule&#45;&gt;AppComponent </title>
<path fill="none" stroke="black" stroke-dasharray="1,5" d="M272,-187.11C272,-187.11 272,-205.99 272,-205.99"/>
<polygon fill="black" stroke="black" points="268.5,-205.99 272,-215.99 275.5,-205.99 268.5,-205.99"/>
</g>
<!-- AppRoutingModule -->
<g id="node3" class="node">
<title>AppRoutingModule</title>
<polygon fill="#8dd3c7" stroke="black" points="399.27,-122 396.27,-126 375.27,-126 372.27,-122 270.73,-122 270.73,-86 399.27,-86 399.27,-122"/>
<text text-anchor="middle" x="335" y="-99.8" font-family="Times,serif" font-size="14.00">AppRoutingModule</text>
</g>
<!-- AppRoutingModule&#45;&gt;AppModule -->
<g id="edge2" class="edge">
<title>AppRoutingModule&#45;&gt;AppModule</title>
<path fill="none" stroke="black" d="M292.22,-122.11C292.22,-122.11 292.22,-140.99 292.22,-140.99"/>
<polygon fill="black" stroke="black" points="288.72,-140.99 292.22,-150.99 295.72,-140.99 288.72,-140.99"/>
</g>
<!-- CoreModule -->
<g id="node4" class="node">
<title>CoreModule</title>
<polygon fill="#8dd3c7" stroke="black" points="252.26,-122 249.26,-126 228.26,-126 225.26,-122 165.74,-122 165.74,-86 252.26,-86 252.26,-122"/>
<text text-anchor="middle" x="209" y="-99.8" font-family="Times,serif" font-size="14.00">CoreModule</text>
</g>
<!-- CoreModule&#45;&gt;AppModule -->
<g id="edge3" class="edge">
<title>CoreModule&#45;&gt;AppModule</title>
<path fill="none" stroke="black" d="M241.28,-122.11C241.28,-122.11 241.28,-140.99 241.28,-140.99"/>
<polygon fill="black" stroke="black" points="237.78,-140.99 241.28,-150.99 244.78,-140.99 237.78,-140.99"/>
</g>
<!-- ViewHomeModule -->
<g id="node5" class="node">
<title>ViewHomeModule</title>
<polygon fill="#8dd3c7" stroke="black" points="148.08,-122 145.08,-126 124.08,-126 121.08,-122 23.92,-122 23.92,-86 148.08,-86 148.08,-122"/>
<text text-anchor="middle" x="86" y="-99.8" font-family="Times,serif" font-size="14.00">ViewHomeModule</text>
</g>
<!-- ViewHomeModule&#45;&gt;AppModule -->
<g id="edge4" class="edge">
<title>ViewHomeModule&#45;&gt;AppModule</title>
<path fill="none" stroke="black" d="M86,-122.11C86,-141.34 86,-169 86,-169 86,-169 220.26,-169 220.26,-169"/>
<polygon fill="black" stroke="black" points="220.26,-172.5 230.26,-169 220.26,-165.5 220.26,-172.5"/>
</g>
</g>
</svg>
