<?xml version="1.0" encoding="UTF-8" standalone="no"?>
<!DOCTYPE svg PUBLIC "-//W3C//DTD SVG 1.1//EN"
 "http://www.w3.org/Graphics/SVG/1.1/DTD/svg11.dtd">
<!-- Generated by graphviz version 2.47.0 (20210316.0004)
 -->
<!-- Title: dependencies Pages: 1 -->
<svg width="1114pt" height="428pt"
 viewBox="0.00 0.00 1114.00 428.00" xmlns="http://www.w3.org/2000/svg" xmlns:xlink="http://www.w3.org/1999/xlink">
<g id="graph0" class="graph" transform="scale(1 1) rotate(0) translate(4 424)">
<title>dependencies</title>
<polygon fill="white" stroke="transparent" points="-4,4 -4,-424 1110,-424 1110,4 -4,4"/>
<text text-anchor="start" x="532.01" y="-42.4" font-family="Times-12" font-weight="bold" font-size="14.00">Legend</text>
<polygon fill="#ffffb3" stroke="transparent" points="319,-10 319,-30 339,-30 339,-10 319,-10"/>
<text text-anchor="start" x="342.63" y="-15.4" font-family="Times-12" font-size="14.00"> &#160;Declarations</text>
<polygon fill="#8dd3c7" stroke="transparent" points="432,-10 432,-30 452,-30 452,-10 432,-10"/>
<text text-anchor="start" x="455.73" y="-15.4" font-family="Times-12" font-size="14.00"> &#160;Module</text>
<polygon fill="#80b1d3" stroke="transparent" points="518,-10 518,-30 538,-30 538,-10 518,-10"/>
<text text-anchor="start" x="541.78" y="-15.4" font-family="Times-12" font-size="14.00"> &#160;Bootstrap</text>
<polygon fill="#fdb462" stroke="transparent" points="615,-10 615,-30 635,-30 635,-10 615,-10"/>
<text text-anchor="start" x="638.67" y="-15.4" font-family="Times-12" font-size="14.00"> &#160;Providers</text>
<polygon fill="#fb8072" stroke="transparent" points="711,-10 711,-30 731,-30 731,-10 711,-10"/>
<text text-anchor="start" x="734.73" y="-15.4" font-family="Times-12" font-size="14.00"> &#160;Exports</text>
<g id="clust1" class="cluster">
<title>cluster_AppModule</title>
<polygon fill="none" stroke="black" stroke-dasharray="1,5" points="238,-214 238,-412 774,-412 774,-214 238,-214"/>
</g>
<g id="clust2" class="cluster">
<title>cluster_AppModule_declarations</title>
<polygon fill="none" stroke="black" points="644,-222 644,-274 766,-274 766,-222 644,-222"/>
</g>
<g id="clust4" class="cluster">
<title>cluster_AppModule_imports</title>
<polygon fill="none" stroke="black" points="246,-222 246,-274 636,-274 636,-222 246,-222"/>
</g>
<g id="clust6" class="cluster">
<title>cluster_AppModule_bootstrap</title>
<polygon fill="none" stroke="black" points="430,-352 430,-404 554,-404 554,-352 430,-352"/>
</g>
<g id="clust14" class="cluster">
<title>cluster_CoreModule</title>
<polygon fill="none" stroke="black" stroke-dasharray="1,5" points="8,-138 8,-206 350,-206 350,-138 8,-138"/>
</g>
<g id="clust19" class="cluster">
<title>cluster_CoreModule_providers</title>
<polygon fill="none" stroke="black" points="16,-146 16,-198 342,-198 342,-146 16,-146"/>
</g>
<g id="clust20" class="cluster">
<title>cluster_UiModule</title>
<polygon fill="none" stroke="black" stroke-dasharray="1,5" points="782,-70 782,-282 1098,-282 1098,-70 782,-70"/>
</g>
<g id="clust21" class="cluster">
<title>cluster_UiModule_declarations</title>
<polygon fill="none" stroke="black" points="791,-78 791,-130 1084,-130 1084,-78 791,-78"/>
</g>
<g id="clust25" class="cluster">
<title>cluster_UiModule_exports</title>
<polygon fill="none" stroke="black" points="790,-222 790,-274 1090,-274 1090,-222 790,-222"/>
</g>
<g id="clust28" class="cluster">
<title>cluster_ViewHomeModule</title>
<polygon fill="none" stroke="black" stroke-dasharray="1,5" points="358,-138 358,-206 730,-206 730,-138 358,-138"/>
</g>
<g id="clust29" class="cluster">
<title>cluster_ViewHomeModule_declarations</title>
<polygon fill="none" stroke="black" points="560,-146 560,-198 722,-198 722,-146 560,-146"/>
</g>
<g id="clust31" class="cluster">
<title>cluster_ViewHomeModule_imports</title>
<polygon fill="none" stroke="black" points="366,-146 366,-198 552,-198 552,-146 366,-146"/>
</g>
<!-- AppComponent -->
<g id="node1" class="node">
<title>AppComponent</title>
<polygon fill="#ffffb3" stroke="black" points="757.94,-266 652.06,-266 652.06,-230 757.94,-230 757.94,-266"/>
<text text-anchor="middle" x="705" y="-243.8" font-family="Times,serif" font-size="14.00">AppComponent</text>
</g>
<!-- AppModule -->
<g id="node2" class="node">
<title>AppModule</title>
<polygon fill="#8dd3c7" stroke="black" points="533.66,-331 530.66,-335 509.66,-335 506.66,-331 450.34,-331 450.34,-295 533.66,-295 533.66,-331"/>
<text text-anchor="middle" x="492" y="-308.8" font-family="Times,serif" font-size="14.00">AppModule</text>
</g>
<!-- AppComponent&#45;&gt;AppModule -->
<g id="edge1" class="edge">
<title>AppComponent&#45;&gt;AppModule</title>
<path fill="none" stroke="black" d="M705,-266.11C705,-285.34 705,-313 705,-313 705,-313 543.83,-313 543.83,-313"/>
<polygon fill="black" stroke="black" points="543.83,-309.5 533.83,-313 543.83,-316.5 543.83,-309.5"/>
</g>
<!-- AppComponent  -->
<g id="node6" class="node">
<title>AppComponent </title>
<polygon fill="#80b1d3" stroke="black" points="546.44,-396 437.56,-396 437.56,-360 546.44,-360 546.44,-396"/>
<text text-anchor="middle" x="492" y="-373.8" font-family="Times,serif" font-size="14.00">AppComponent </text>
</g>
<!-- AppModule&#45;&gt;AppComponent  -->
<g id="edge5" class="edge">
<title>AppModule&#45;&gt;AppComponent </title>
<path fill="none" stroke="black" stroke-dasharray="1,5" d="M492,-331.11C492,-331.11 492,-349.99 492,-349.99"/>
<polygon fill="black" stroke="black" points="488.5,-349.99 492,-359.99 495.5,-349.99 488.5,-349.99"/>
</g>
<!-- AppRoutingModule -->
<g id="node3" class="node">
<title>AppRoutingModule</title>
<polygon fill="#8dd3c7" stroke="black" points="628.27,-266 625.27,-270 604.27,-270 601.27,-266 499.73,-266 499.73,-230 628.27,-230 628.27,-266"/>
<text text-anchor="middle" x="564" y="-243.8" font-family="Times,serif" font-size="14.00">AppRoutingModule</text>
</g>
<!-- AppRoutingModule&#45;&gt;AppModule -->
<g id="edge2" class="edge">
<title>AppRoutingModule&#45;&gt;AppModule</title>
<path fill="none" stroke="black" d="M516.72,-266.11C516.72,-266.11 516.72,-284.99 516.72,-284.99"/>
<polygon fill="black" stroke="black" points="513.22,-284.99 516.72,-294.99 520.22,-284.99 513.22,-284.99"/>
</g>
<!-- CoreModule -->
<g id="node4" class="node">
<title>CoreModule</title>
<polygon fill="#8dd3c7" stroke="black" points="340.26,-266 337.26,-270 316.26,-270 313.26,-266 253.74,-266 253.74,-230 340.26,-230 340.26,-266"/>
<text text-anchor="middle" x="297" y="-243.8" font-family="Times,serif" font-size="14.00">CoreModule</text>
</g>
<!-- CoreModule&#45;&gt;AppModule -->
<g id="edge3" class="edge">
<title>CoreModule&#45;&gt;AppModule</title>
<path fill="none" stroke="black" d="M297,-266.11C297,-285.34 297,-313 297,-313 297,-313 440.17,-313 440.17,-313"/>
<polygon fill="black" stroke="black" points="440.17,-316.5 450.17,-313 440.17,-309.5 440.17,-316.5"/>
</g>
<!-- ViewHomeModule -->
<g id="node5" class="node">
<title>ViewHomeModule</title>
<polygon fill="#8dd3c7" stroke="black" points="482.08,-266 479.08,-270 458.08,-270 455.08,-266 357.92,-266 357.92,-230 482.08,-230 482.08,-266"/>
<text text-anchor="middle" x="420" y="-243.8" font-family="Times,serif" font-size="14.00">ViewHomeModule</text>
</g>
<!-- ViewHomeModule&#45;&gt;AppModule -->
<g id="edge4" class="edge">
<title>ViewHomeModule&#45;&gt;AppModule</title>
<path fill="none" stroke="black" d="M466.11,-266.11C466.11,-266.11 466.11,-284.99 466.11,-284.99"/>
<polygon fill="black" stroke="black" points="462.61,-284.99 466.11,-294.99 469.61,-284.99 462.61,-284.99"/>
</g>
<!-- PresenterService -->
<g id="node7" class="node">
<title>PresenterService</title>
<ellipse fill="#fdb462" stroke="black" cx="258" cy="-172" rx="75.84" ry="18"/>
<text text-anchor="middle" x="258" y="-167.8" font-family="Times,serif" font-size="14.00">PresenterService</text>
</g>
<!-- PresenterService&#45;&gt;CoreModule -->
<g id="edge6" class="edge">
<title>PresenterService&#45;&gt;CoreModule</title>
<path fill="none" stroke="black" d="M293.77,-188.12C293.77,-188.12 293.77,-219.77 293.77,-219.77"/>
<polygon fill="black" stroke="black" points="290.27,-219.77 293.77,-229.77 297.27,-219.77 290.27,-219.77"/>
</g>
<!-- ProductService -->
<g id="node8" class="node">
<title>ProductService</title>
<ellipse fill="#fdb462" stroke="black" cx="94" cy="-172" rx="70.06" ry="18"/>
<text text-anchor="middle" x="94" y="-167.8" font-family="Times,serif" font-size="14.00">ProductService</text>
</g>
<!-- ProductService&#45;&gt;CoreModule -->
<g id="edge7" class="edge">
<title>ProductService&#45;&gt;CoreModule</title>
<path fill="none" stroke="black" d="M94,-190.01C94,-212.49 94,-248 94,-248 94,-248 243.45,-248 243.45,-248"/>
<polygon fill="black" stroke="black" points="243.45,-251.5 253.45,-248 243.45,-244.5 243.45,-251.5"/>
</g>
<!-- UiCardComponent -->
<g id="node9" class="node">
<title>UiCardComponent</title>
<polygon fill="#ffffb3" stroke="black" points="1076.04,-122 953.96,-122 953.96,-86 1076.04,-86 1076.04,-122"/>
<text text-anchor="middle" x="1015" y="-99.8" font-family="Times,serif" font-size="14.00">UiCardComponent</text>
</g>
<!-- UiModule -->
<g id="node11" class="node">
<title>UiModule</title>
<polygon fill="#8dd3c7" stroke="black" points="904.55,-190 901.55,-194 880.55,-194 877.55,-190 831.45,-190 831.45,-154 904.55,-154 904.55,-190"/>
<text text-anchor="middle" x="868" y="-167.8" font-family="Times,serif" font-size="14.00">UiModule</text>
</g>
<!-- UiCardComponent&#45;&gt;UiModule -->
<g id="edge8" class="edge">
<title>UiCardComponent&#45;&gt;UiModule</title>
<path fill="none" stroke="black" d="M1036.17,-122.27C1036.17,-140.56 1036.17,-166 1036.17,-166 1036.17,-166 914.91,-166 914.91,-166"/>
<polygon fill="black" stroke="black" points="914.91,-162.5 904.91,-166 914.91,-169.5 914.91,-162.5"/>
</g>
<!-- UiNavbarComponent -->
<g id="node10" class="node">
<title>UiNavbarComponent</title>
<polygon fill="#ffffb3" stroke="black" points="935.03,-122 798.97,-122 798.97,-86 935.03,-86 935.03,-122"/>
<text text-anchor="middle" x="867" y="-99.8" font-family="Times,serif" font-size="14.00">UiNavbarComponent</text>
</g>
<!-- UiNavbarComponent&#45;&gt;UiModule -->
<g id="edge9" class="edge">
<title>UiNavbarComponent&#45;&gt;UiModule</title>
<path fill="none" stroke="black" d="M868,-122.22C868,-122.22 868,-143.73 868,-143.73"/>
<polygon fill="black" stroke="black" points="864.5,-143.73 868,-153.73 871.5,-143.73 864.5,-143.73"/>
</g>
<!-- UiModule&#45;&gt;ViewHomeModule -->
<g id="edge13" class="edge">
<title>UiModule&#45;&gt;ViewHomeModule</title>
<path fill="none" stroke="black" d="M855.74,-190.04C855.74,-202.56 855.74,-217 855.74,-217 855.74,-217 455.13,-217 455.13,-217 455.13,-217 455.13,-219.97 455.13,-219.97"/>
<polygon fill="black" stroke="black" points="451.63,-219.97 455.13,-229.97 458.63,-219.97 451.63,-219.97"/>
</g>
<!-- UiCardComponent  -->
<g id="node12" class="node">
<title>UiCardComponent </title>
<polygon fill="#fb8072" stroke="black" points="1082.04,-266 955.96,-266 955.96,-230 1082.04,-230 1082.04,-266"/>
<text text-anchor="middle" x="1019" y="-243.8" font-family="Times,serif" font-size="14.00">UiCardComponent </text>
</g>
<!-- UiModule&#45;&gt;UiCardComponent  -->
<g id="edge10" class="edge">
<title>UiModule&#45;&gt;UiCardComponent </title>
<path fill="none" stroke="black" stroke-dasharray="5,2" d="M904.7,-178C942.55,-178 996.08,-178 996.08,-178 996.08,-178 996.08,-219.97 996.08,-219.97"/>
<polygon fill="black" stroke="black" points="992.58,-219.97 996.08,-229.97 999.58,-219.97 992.58,-219.97"/>
</g>
<!-- UiNavbarComponent  -->
<g id="node13" class="node">
<title>UiNavbarComponent </title>
<polygon fill="#fb8072" stroke="black" points="938.03,-266 797.97,-266 797.97,-230 938.03,-230 938.03,-266"/>
<text text-anchor="middle" x="868" y="-243.8" font-family="Times,serif" font-size="14.00">UiNavbarComponent </text>
</g>
<!-- UiModule&#45;&gt;UiNavbarComponent  -->
<g id="edge11" class="edge">
<title>UiModule&#45;&gt;UiNavbarComponent </title>
<path fill="none" stroke="black" stroke-dasharray="5,2" d="M880.26,-190.01C880.26,-190.01 880.26,-219.85 880.26,-219.85"/>
<polygon fill="black" stroke="black" points="876.76,-219.85 880.26,-229.85 883.76,-219.85 876.76,-219.85"/>
</g>
<!-- ViewHomeComponent -->
<g id="node14" class="node">
<title>ViewHomeComponent</title>
<polygon fill="#ffffb3" stroke="black" points="713.86,-190 568.14,-190 568.14,-154 713.86,-154 713.86,-190"/>
<text text-anchor="middle" x="641" y="-167.8" font-family="Times,serif" font-size="14.00">ViewHomeComponent</text>
</g>
<!-- ViewHomeComponent&#45;&gt;ViewHomeModule -->
<g id="edge12" class="edge">
<title>ViewHomeComponent&#45;&gt;ViewHomeModule</title>
<path fill="none" stroke="black" d="M598.23,-190.24C598.23,-197.43 598.23,-204 598.23,-204 598.23,-204 428.22,-204 428.22,-204 428.22,-204 428.22,-219.85 428.22,-219.85"/>
<polygon fill="black" stroke="black" points="424.72,-219.85 428.22,-229.85 431.72,-219.85 424.72,-219.85"/>
</g>
<!-- ViewHomeRoutingModule -->
<g id="node15" class="node">
<title>ViewHomeRoutingModule</title>
<polygon fill="#8dd3c7" stroke="black" points="543.7,-190 540.7,-194 519.7,-194 516.7,-190 374.3,-190 374.3,-154 543.7,-154 543.7,-190"/>
<text text-anchor="middle" x="459" y="-167.8" font-family="Times,serif" font-size="14.00">ViewHomeRoutingModule</text>
</g>
<!-- ViewHomeRoutingModule&#45;&gt;ViewHomeModule -->
<g id="edge14" class="edge">
<title>ViewHomeRoutingModule&#45;&gt;ViewHomeModule</title>
<path fill="none" stroke="black" d="M401.31,-190.01C401.31,-190.01 401.31,-219.85 401.31,-219.85"/>
<polygon fill="black" stroke="black" points="397.81,-219.85 401.31,-229.85 404.81,-219.85 397.81,-219.85"/>
</g>
</g>
</svg>
